<?xml version="1.0" encoding="UTF-8" standalone="no"?>
<!-- Generator: Adobe Illustrator 22.1.0, SVG Export Plug-In . SVG Version: 6.00 Build 0)  -->

<svg
   version="1.1"
   id="Layer_1"
   x="0px"
   y="0px"
   viewBox="0 0 300 61.765191"
   xml:space="preserve"
   sodipodi:docname="carlisle-logo.svg"
   width="300"
   height="61.76519"
   inkscape:version="1.2.2 (b0a8486, 2022-12-01)"
   inkscape:export-filename="carlisle-logo.webp"
   inkscape:export-xdpi="99.9878"
   inkscape:export-ydpi="99.9878"
   xmlns:inkscape="http://www.inkscape.org/namespaces/inkscape"
   xmlns:sodipodi="http://sodipodi.sourceforge.net/DTD/sodipodi-0.dtd"
   xmlns="http://www.w3.org/2000/svg"
   xmlns:svg="http://www.w3.org/2000/svg"><defs
   id="defs4385" /><sodipodi:namedview
   id="namedview4383"
   pagecolor="#ffffff"
   bordercolor="#666666"
   borderopacity="1.0"
   inkscape:showpageshadow="2"
   inkscape:pageopacity="0.0"
   inkscape:pagecheckerboard="0"
   inkscape:deskcolor="#d1d1d1"
   showgrid="false"
   inkscape:zoom="0.78374771"
   inkscape:cx="131.41984"
   inkscape:cy="45.933148"
   inkscape:window-width="1309"
   inkscape:window-height="430"
   inkscape:window-x="0"
   inkscape:window-y="25"
   inkscape:window-maximized="0"
   inkscape:current-layer="Layer_1" />
<style
   type="text/css"
   id="style4314">
	.st0{fill:#00509E;}
	.st1{fill:#FFFFFF;}
	.st2{fill:#898D90;}
</style>

<g
   id="g4537"
   transform="matrix(0.41667961,0,0,0.41667961,-14.759781,-14.23717)"
   style="stroke-width:2.39993"><g
     id="g4352"
     style="stroke-width:2.39993">
	<g
   id="g4318"
   style="stroke-width:2.39993">
		<path
   class="st0"
   d="M 179.3,34.3 H 111 c 0,0 -48.5,-3.7 -59,28.1 l -14.9,45.5 c 0,0 -14.3,41.6 40.6,41.6 h 102.8 l 36.3,-22.6 -7.4,22.6 H 718.8 L 755.4,34.2 H 204.3 l -31.8,21.3 z"
   id="path4316"
   style="stroke-width:2.39993" />
	</g>
	<g
   id="g4322"
   style="stroke-width:2.39993">
		<polygon
   class="st1"
   points="665.5,98.2 661.1,112.1 703.3,112.1 698.5,127 631.8,127 654.3,56 721.1,56 716.4,70.9 674.1,70.9 670.4,82.7 712.7,82.6 707.7,98.2 "
   id="polygon4320"
   style="stroke-width:2.39993" />
	</g>
	<g
   id="g4326"
   style="stroke-width:2.39993">
		<polygon
   class="st1"
   points="608.8,56 590.8,111.7 624.7,111.6 619.6,127 559.6,127 582.7,56 "
   id="polygon4324"
   style="stroke-width:2.39993" />
	</g>
	<g
   id="g4330"
   style="stroke-width:2.39993">
		<polygon
   class="st1"
   points="443.6,127 418,127.1 440.6,56 466.5,56 "
   id="polygon4328"
   style="stroke-width:2.39993" />
	</g>
	<g
   id="g4334"
   style="stroke-width:2.39993">
		<polygon
   class="st1"
   points="407.7,127.1 347.8,127 370.7,56 396.3,56 378.8,111.4 412.7,111.4 "
   id="polygon4332"
   style="stroke-width:2.39993" />
	</g>
	<g
   id="g4338"
   style="stroke-width:2.39993">
		<path
   class="st1"
   d="M 225.4,98.5 H 194.9 L 233.8,72.4 Z M 103.9,55.6 C 88.6,55.6 82.8,59 78.6,69.1 l -14.1,44 C 62,120.8 69.4,127 80.9,127 h 71.3 l 18.2,-12.2 h 50.2 l -3.9,12.1 h 25.8 l 23,-71 H 229.6 L 147.7,111 H 91.6 l 13.2,-40.7 h 45.6 l 22.1,-14.7 z"
   id="path4336"
   style="stroke-width:2.39993" />
	</g>
	<g
   id="g4342"
   style="stroke-width:2.39993">
		<path
   class="st1"
   d="m 508.9,71.6 h 54.9 L 569.1,56 h -58.5 l -3.8,0.1 c -1.6,0 -3.2,0.2 -4.8,0.6 -10.3,2.1 -23.2,10.9 -26.4,21.5 -3.5,11.5 1.6,20.9 10.2,21.7 h 41.5 c 6.7,0.1 7.3,3.4 5.3,6.5 -2,3.1 -4.7,5 -12.6,5 h -28.4 -31.7 l -5.1,15.8 h 70.7 c 10.8,-0.1 26.2,-9.8 29.9,-21.8 3.7,-12 -2,-22.5 -11.7,-22.4 h -41.9 c -4.6,0 -5.8,-3.3 -3.8,-6.4 1.9,-3.4 4.3,-5 10.9,-5 z"
   id="path4340"
   style="stroke-width:2.39993" />
	</g>
	<g
   id="g4346"
   style="stroke-width:2.39993">
		<path
   class="st1"
   d="M 347.2,78.1 C 350.9,66 345.6,55.9 335.9,56 h -59 l -23,71 h 27.2 l 11.3,-37.8 5.8,-18 h 15.7 c 9.4,0 12.7,4.9 9.7,10.7 -3.2,6.2 -8.8,7 -15.5,7.4 h -15.6 l 21.4,37.8 H 341 l -15.2,-26.9 -0.7,-1.3 c 9.3,-3.2 19.2,-11.3 22.1,-20.8 z"
   id="path4344"
   style="stroke-width:2.39993" />
	</g>
	<g
   id="g4350"
   style="stroke-width:2.39993">
		<path
   class="st1"
   d="m 698.8,134.7 c 0,-3.3 2.7,-6 6,-6 3.3,0 6,2.7 6,6 0,3.3 -2.7,6 -6,6 -3.3,0.1 -6,-2.6 -6,-6 z m 10.9,0 c 0,-2.7 -2.2,-4.9 -4.9,-4.9 -2.7,0 -4.9,2.2 -4.9,4.9 0,2.7 2.2,4.9 4.9,4.9 2.8,0 4.9,-2.1 4.9,-4.9 z m -1.9,3.3 h -1.5 l -1.5,-2.7 h -1.3 v 2.7 h -1.3 v -6.5 h 3.2 c 0.6,0 1.3,0 1.8,0.3 0.6,0.4 0.8,1 0.8,1.7 0,1.2 -0.6,1.7 -1.8,1.8 z m -2.3,-3.7 c 0.7,0 1.2,-0.2 1.2,-1 0,-0.9 -0.9,-0.9 -1.6,-0.9 h -1.6 v 1.8 z"
   id="path4348"
   style="stroke-width:2.39993" />
	</g>
</g><g
     id="g4380"
     style="stroke-width:2.39993">
	<path
   class="st2"
   d="m 344.6,163.7 c -0.6,-0.5 -1.5,-0.8 -2.7,-1 -1.1,-0.2 -2.5,-0.3 -4.2,-0.3 h -5.9 c -1.4,0 -2.7,0.1 -3.9,0.2 -1.2,0.2 -2.2,0.4 -3.1,0.8 -0.9,0.4 -1.7,1 -2.3,1.7 -0.6,0.7 -1.1,1.7 -1.5,2.8 -0.4,1.3 -0.5,2.4 -0.3,3.3 0.1,0.7 0.6,1.6 1.9,2.2 0.9,0.4 2,0.6 3.5,0.7 1.4,0.1 3.2,0.1 5.2,0.1 h 5.2 c 0.8,0 1.5,0 2,0.1 0.5,0.1 0.7,0.2 0.8,0.3 0.1,0 0.1,0.1 0.1,0.2 0,0.2 0,0.5 -0.2,1 -0.2,0.5 -0.4,1 -0.6,1.4 -0.2,0.3 -0.5,0.6 -0.8,0.7 -0.4,0.2 -0.9,0.3 -1.5,0.4 -0.6,0.1 -1.4,0.2 -2.4,0.2 h -8.5 c -0.8,0 -1.4,0 -1.9,-0.1 -0.5,-0.1 -0.7,-0.2 -0.8,-0.3 -0.1,-0.1 -0.1,-0.2 -0.1,-0.2 0,-0.1 0,-0.4 0.1,-0.7 l 0.8,-2.4 h -4.4 l -0.6,1.9 c -0.4,1.2 -0.4,2.1 -0.1,2.9 0.3,0.8 0.8,1.4 1.6,1.8 0.7,0.4 1.5,0.6 2.5,0.7 0.9,0.1 1.9,0.2 2.9,0.2 h 7.6 c 1,0 2.1,0 3.1,-0.1 1.1,-0.1 2.1,-0.3 3,-0.6 1,-0.4 1.8,-0.9 2.6,-1.6 0.8,-0.7 1.4,-1.7 1.8,-3 l 0.4,-1.2 c 0.8,-2.4 -0.2,-3.7 -1.1,-4.3 -1.1,-0.8 -3.1,-1.2 -6,-1.2 h -8.1 c -1,0 -1.8,0 -2.4,-0.1 -0.6,-0.1 -0.9,-0.3 -1,-0.3 -0.1,-0.1 -0.1,-0.1 -0.1,-0.2 0,-0.2 0,-0.5 0.2,-1 0.2,-0.6 0.4,-1.1 0.7,-1.4 0.3,-0.3 0.7,-0.5 1.1,-0.7 0.5,-0.2 1.2,-0.3 2.1,-0.4 0.9,-0.1 2,-0.1 3.3,-0.1 h 2.9 c 1.7,0 3.1,0 4.1,0.1 1.1,0.1 1.5,0.3 1.7,0.4 0.2,0.1 0.2,0.1 0.1,0.2 0,0.4 -0.1,0.9 -0.3,1.5 l -0.3,1.1 h 4.4 l 0.4,-1.2 c 0.3,-0.9 0.4,-1.7 0.3,-2.4 -0.2,-0.8 -0.6,-1.5 -1.3,-2.1 z"
   id="path4354"
   style="stroke-width:2.39993" />
	<polygon
   class="st2"
   points="378.9,162.6 372,162.6 360.7,170.5 354.3,162.6 348.3,162.6 357.5,173.9 354.9,182.2 359.5,182.2 362,174.3 "
   id="polygon4356"
   style="stroke-width:2.39993" />
	<polygon
   class="st2"
   points="408.6,162.6 404,162.6 399.4,177.3 386.7,162.6 381.5,162.6 375.4,182.2 380,182.2 384.6,167.4 397.3,182.2 402.5,182.2 "
   id="polygon4358"
   style="stroke-width:2.39993" />
	<polygon
   class="st2"
   points="436.8,162.6 411.8,162.6 410.6,166.3 420.8,166.3 415.8,182.2 420.4,182.2 425.4,166.3 435.6,166.3 "
   id="polygon4360"
   style="stroke-width:2.39993" />
	<polygon
   class="st2"
   points="458.1,174 459.3,170.2 442.9,170.2 444.1,166.3 461.2,166.3 462.3,162.6 440.7,162.6 434.5,182.2 456.3,182.2 457.5,178.4 440.3,178.4 441.7,174 "
   id="polygon4362"
   style="stroke-width:2.39993" />
	<path
   class="st2"
   d="m 487.8,162.8 c -0.8,-0.3 -1.9,-0.4 -3.2,-0.4 h -10.4 c -1.4,0 -2.7,0.1 -3.8,0.4 -1.1,0.3 -2.1,0.8 -2.9,1.4 -0.8,0.6 -1.5,1.4 -2.1,2.3 -0.5,0.9 -1,1.9 -1.4,3.1 l -1.5,4.9 c -0.4,1.2 -0.6,2.3 -0.6,3.2 0,1 0.2,1.9 0.7,2.6 0.5,0.7 1.3,1.3 2.3,1.6 0.9,0.3 2.1,0.5 3.6,0.5 h 10.3 c 1.5,0 2.7,-0.1 3.7,-0.3 1.1,-0.2 2,-0.6 2.7,-1.1 0.7,-0.5 1.3,-1.1 1.8,-1.8 0.4,-0.7 0.8,-1.5 1,-2.3 l 0.7,-2.4 h -4.4 l -0.5,1.7 c -0.2,0.5 -0.4,0.9 -0.6,1.3 -0.2,0.3 -0.4,0.5 -0.8,0.7 -0.3,0.2 -0.8,0.3 -1.3,0.4 -0.6,0.1 -1.3,0.1 -2.2,0.1 h -9.5 c -0.6,0 -1.1,0 -1.6,-0.1 -0.4,-0.1 -0.7,-0.2 -0.9,-0.4 -0.1,-0.1 -0.3,-0.3 -0.3,-0.6 0,-0.2 0,-0.7 0.2,-1.5 l 2.1,-6.7 c 0.2,-0.7 0.5,-1.2 0.8,-1.6 0.3,-0.4 0.7,-0.7 1.1,-0.9 0.4,-0.2 0.9,-0.4 1.4,-0.5 0.6,-0.1 1.1,-0.1 1.7,-0.1 h 9.5 c 0.6,0 1.2,0 1.7,0.1 0.4,0 0.7,0.1 1,0.3 0.1,0.1 0.2,0.2 0.3,0.4 0,0.1 0.1,0.5 -0.2,1.3 l -0.6,2 h 4.3 l 0.7,-2.2 c 0.2,-0.7 0.3,-1.4 0.3,-2 0,-0.7 -0.3,-1.4 -0.8,-2 -0.7,-0.7 -1.4,-1.1 -2.3,-1.4 z"
   id="path4364"
   style="stroke-width:2.39993" />
	<path
   class="st2"
   d="m 533.9,163.7 c -0.6,-0.5 -1.5,-0.8 -2.7,-1 -1.1,-0.2 -2.5,-0.3 -4.2,-0.3 h -5.9 c -1.4,0 -2.7,0.1 -3.9,0.2 -1.2,0.2 -2.2,0.4 -3.1,0.8 -0.9,0.4 -1.7,1 -2.3,1.7 -0.6,0.7 -1.1,1.7 -1.5,2.8 -0.4,1.3 -0.5,2.4 -0.3,3.3 0.1,0.7 0.6,1.6 1.9,2.2 0.9,0.4 2,0.6 3.5,0.7 1.4,0.1 3.2,0.1 5.2,0.1 h 5.2 c 0.8,0 1.5,0 2,0.1 0.5,0.1 0.7,0.2 0.8,0.3 0,0 0.1,0.1 0.1,0.2 0,0.2 0,0.5 -0.2,1 -0.2,0.5 -0.4,1 -0.6,1.4 -0.2,0.3 -0.5,0.6 -0.8,0.7 -0.4,0.2 -0.9,0.3 -1.5,0.4 -0.6,0.1 -1.4,0.2 -2.4,0.2 h -8.5 c -0.8,0 -1.4,0 -1.9,-0.1 -0.5,-0.1 -0.7,-0.2 -0.8,-0.3 -0.1,-0.1 -0.1,-0.2 -0.1,-0.2 0,-0.1 0,-0.4 0.1,-0.7 l 0.8,-2.4 h -4.6 l -0.6,1.9 c -0.4,1.2 -0.4,2.1 -0.1,2.9 0.3,0.8 0.8,1.4 1.6,1.8 0.7,0.4 1.5,0.6 2.5,0.7 0.9,0.1 1.9,0.2 2.9,0.2 h 7.6 c 1,0 2.1,0 3.1,-0.1 1.1,-0.1 2.1,-0.3 3,-0.6 1,-0.4 1.8,-0.9 2.6,-1.6 0.8,-0.7 1.4,-1.7 1.8,-3 l 0.4,-1.2 c 0.8,-2.4 -0.2,-3.7 -1.1,-4.3 -1.1,-0.8 -3.1,-1.2 -6,-1.2 h -8.1 c -1,0 -1.8,0 -2.4,-0.1 -0.6,-0.1 -0.9,-0.3 -1,-0.3 -0.1,-0.1 -0.1,-0.1 -0.1,-0.2 0,-0.2 0,-0.5 0.2,-1 0.2,-0.6 0.4,-1.1 0.7,-1.4 0.3,-0.3 0.7,-0.5 1.1,-0.7 0.5,-0.2 1.2,-0.3 2.1,-0.4 0.9,-0.1 2,-0.1 3.3,-0.1 h 2.9 c 1.7,0 3.1,0 4.1,0.1 1.1,0.1 1.5,0.3 1.7,0.4 0.2,0.1 0.2,0.1 0.1,0.2 0,0.4 -0.1,0.9 -0.3,1.5 l -0.3,1.1 h 4.4 l 0.4,-1.2 c 0.3,-0.9 0.4,-1.7 0.3,-2.4 0,-0.8 -0.4,-1.5 -1.1,-2.1 z"
   id="path4366"
   style="stroke-width:2.39993" />
	<polygon
   class="st2"
   points="568.1,162.6 561.3,162.6 549.9,170.5 543.5,162.6 537.5,162.6 546.7,173.9 544.1,182.2 548.7,182.2 551.2,174.3 "
   id="polygon4368"
   style="stroke-width:2.39993" />
	<path
   class="st2"
   d="m 591.2,163.7 c -0.6,-0.5 -1.5,-0.8 -2.7,-1 -1.1,-0.2 -2.5,-0.3 -4.2,-0.3 h -5.9 c -1.4,0 -2.7,0.1 -3.9,0.2 -1.2,0.2 -2.2,0.4 -3.1,0.8 -0.9,0.4 -1.7,1 -2.3,1.7 -0.6,0.7 -1.1,1.7 -1.5,2.8 -0.4,1.3 -0.5,2.4 -0.3,3.3 0.1,0.7 0.6,1.6 1.9,2.2 0.9,0.4 2,0.6 3.5,0.7 1.4,0.1 3.2,0.1 5.2,0.1 h 5.2 c 0.8,0 1.5,0 2,0.1 0.5,0.1 0.7,0.2 0.8,0.3 0,0 0.1,0.1 0.1,0.2 0,0.2 0,0.5 -0.2,1 -0.2,0.5 -0.4,1 -0.6,1.4 -0.2,0.3 -0.5,0.6 -0.8,0.7 -0.4,0.2 -0.9,0.3 -1.5,0.4 -0.6,0.1 -1.4,0.2 -2.4,0.2 H 572 c -0.8,0 -1.4,0 -1.9,-0.1 -0.5,-0.1 -0.7,-0.2 -0.8,-0.3 -0.1,-0.1 -0.1,-0.2 -0.1,-0.2 0,-0.1 0,-0.4 0.1,-0.7 l 0.8,-2.4 h -4.4 l -0.6,1.9 c -0.4,1.2 -0.4,2.1 -0.1,2.9 0.3,0.8 0.8,1.4 1.6,1.8 0.7,0.4 1.5,0.6 2.5,0.7 0.9,0.1 1.9,0.2 2.9,0.2 h 7.6 c 1,0 2.1,0 3.1,-0.1 1.1,-0.1 2.1,-0.3 3,-0.6 1,-0.4 1.8,-0.9 2.6,-1.6 0.8,-0.7 1.4,-1.7 1.8,-3 l 0.4,-1.2 c 0.8,-2.4 -0.2,-3.7 -1.1,-4.3 -1.1,-0.8 -3.1,-1.2 -6,-1.2 h -8.1 c -1,0 -1.8,0 -2.4,-0.1 -0.6,-0.1 -0.9,-0.3 -1,-0.3 -0.1,-0.1 -0.1,-0.1 -0.1,-0.2 0,-0.2 0,-0.5 0.2,-1 0.2,-0.6 0.4,-1.1 0.7,-1.4 0.3,-0.3 0.7,-0.5 1.1,-0.7 0.5,-0.2 1.2,-0.3 2.1,-0.4 0.9,-0.1 2,-0.1 3.3,-0.1 h 2.9 c 1.7,0 3.1,0 4.1,0.1 1.1,0.1 1.5,0.3 1.7,0.4 0.2,0.1 0.2,0.1 0.1,0.2 0,0.4 -0.1,0.9 -0.3,1.5 l -0.3,1.1 h 4.4 l 0.4,-1.2 c 0.3,-0.9 0.4,-1.7 0.3,-2.4 -0.2,-0.8 -0.6,-1.5 -1.3,-2.1 z"
   id="path4370"
   style="stroke-width:2.39993" />
	<polygon
   class="st2"
   points="621.6,162.6 596.6,162.6 595.4,166.3 605.6,166.3 600.6,182.2 605.2,182.2 610.2,166.3 620.4,166.3 "
   id="polygon4372"
   style="stroke-width:2.39993" />
	<polygon
   class="st2"
   points="627,174 643.4,174 644.6,170.2 628.2,170.2 629.4,166.3 646.5,166.3 647.7,162.6 626,162.6 619.8,182.2 641.6,182.2 642.8,178.4 625.6,178.4 "
   id="polygon4374"
   style="stroke-width:2.39993" />
	<polygon
   class="st2"
   points="664.3,182.2 679.4,168.5 675.1,182.2 679.7,182.2 685.9,162.6 680.1,162.6 664.2,176.9 657.4,162.6 652,162.6 645.8,182.2 650.4,182.2 654.9,168 661.5,182.2 "
   id="polygon4376"
   style="stroke-width:2.39993" />
	<path
   class="st2"
   d="m 713.2,165.8 c -0.1,-0.8 -0.5,-1.5 -1.2,-2.1 -0.6,-0.5 -1.5,-0.8 -2.7,-1 -1.1,-0.2 -2.5,-0.3 -4.2,-0.3 h -5.9 c -1.4,0 -2.7,0.1 -3.9,0.2 -1.2,0.2 -2.2,0.4 -3.1,0.8 -0.9,0.4 -1.7,1 -2.3,1.7 -0.6,0.7 -1.1,1.7 -1.5,2.8 -0.4,1.3 -0.5,2.4 -0.3,3.3 0.1,0.7 0.6,1.6 1.9,2.2 0.9,0.4 2,0.6 3.5,0.7 1.4,0.1 3.2,0.1 5.2,0.1 h 5.2 c 0.8,0 1.5,0 2,0.1 0.5,0.1 0.7,0.2 0.8,0.3 0.1,0 0.1,0.1 0.1,0.2 0,0.2 0,0.5 -0.2,1 -0.2,0.5 -0.4,1 -0.6,1.4 -0.2,0.3 -0.5,0.6 -0.8,0.7 -0.4,0.2 -0.9,0.3 -1.5,0.4 -0.6,0.1 -1.4,0.2 -2.4,0.2 h -8.5 c -0.8,0 -1.4,0 -1.9,-0.1 -0.5,-0.1 -0.7,-0.2 -0.8,-0.3 -0.1,-0.1 -0.1,-0.2 -0.1,-0.2 0,-0.1 0,-0.4 0.1,-0.7 l 0.8,-2.4 h -4.4 l -0.6,1.9 c -0.4,1.2 -0.4,2.1 -0.1,2.9 0.3,0.8 0.8,1.4 1.6,1.8 0.7,0.4 1.5,0.6 2.5,0.7 0.9,0.1 1.9,0.2 2.9,0.2 h 7.6 c 1,0 2.1,0 3.1,-0.1 1.1,-0.1 2.1,-0.3 3,-0.6 1,-0.4 1.8,-0.9 2.6,-1.6 0.8,-0.7 1.4,-1.7 1.7,-3 l 0.4,-1.2 c 0.8,-2.4 -0.2,-3.7 -1.1,-4.3 -1.1,-0.8 -3.1,-1.2 -6,-1.2 H 696 c -1,0 -1.8,0 -2.4,-0.1 -0.6,-0.1 -0.9,-0.3 -1,-0.3 -0.1,-0.1 -0.1,-0.1 -0.1,-0.2 0,-0.2 0,-0.5 0.2,-1 0.2,-0.6 0.4,-1.1 0.7,-1.4 0.3,-0.3 0.7,-0.5 1.1,-0.7 0.5,-0.2 1.3,-0.3 2.1,-0.4 0.9,-0.1 2,-0.1 3.3,-0.1 h 2.9 c 1.7,0 3.1,0 4.1,0.1 1.1,0.1 1.5,0.3 1.7,0.4 0.2,0.1 0.2,0.1 0.1,0.2 0,0.4 -0.1,0.9 -0.3,1.5 l -0.3,1.1 h 4.4 l 0.4,-1.2 c 0.3,-0.9 0.4,-1.7 0.3,-2.4 z"
   id="path4378"
   style="stroke-width:2.39993" />
</g></g>
</svg>
